<svg width="448" height="448" viewBox="0 0 448 448" fill="none" xmlns="http://www.w3.org/2000/svg">
<mask id="mask0_10_1490" style="mask-type:alpha" maskUnits="userSpaceOnUse" x="1" y="0" width="447" height="447">
<circle r="223.266" transform="matrix(-1 0 0 1 224.734 223.266)" fill="#D9D9D9"/>
</mask>
<g mask="url(#mask0_10_1490)">
<path d="M102.337 407.592C103.362 408.324 104.533 409.056 105.558 409.788C106.729 410.52 107.754 411.252 108.925 411.838C109.95 412.424 110.829 413.009 111.853 413.595C112 413.741 112.146 413.741 112.293 413.888C115.66 415.937 119.174 417.841 122.687 419.597C123.712 420.183 124.883 420.769 125.908 421.208C125.908 421.208 126.055 421.354 126.201 421.354C127.372 421.94 128.544 422.526 129.715 423.111C132.057 424.282 134.546 425.307 136.889 426.332C138.06 426.918 139.378 427.357 140.549 427.796C141.72 428.235 143.038 428.821 144.209 429.26C145.38 429.699 146.698 430.285 147.869 430.724C147.869 430.724 147.869 430.724 148.016 430.724C149.187 431.164 150.504 431.603 151.676 432.042C154.311 432.92 157.093 433.799 159.728 434.677C160.606 434.97 161.631 435.263 162.51 435.556C165.291 436.434 168.073 437.166 170.855 437.752C171.88 438.045 172.904 438.191 174.076 438.484C176.711 439.069 179.493 439.655 182.128 440.241C182.714 440.387 183.153 440.387 183.738 440.533C184.617 440.68 185.642 440.826 186.52 440.973C187.838 441.119 189.009 441.412 190.327 441.558C190.912 441.705 191.498 441.705 192.083 441.851C192.815 441.997 193.694 442.144 194.572 442.144C196.915 442.437 199.404 442.73 201.746 443.022C202.478 443.169 203.357 443.169 204.089 443.315H204.235C205.26 443.462 206.285 443.462 207.31 443.608C208.334 443.754 209.359 443.754 210.384 443.754C210.97 443.754 211.702 443.901 212.287 443.901C213.459 443.901 214.483 444.047 215.508 444.047C216.972 444.047 218.29 444.194 219.754 444.194C221.218 444.194 222.536 444.194 224 444.194C225.025 444.194 226.049 444.194 227.074 444.194C288.857 443.315 344.345 417.109 384.021 375.53C384.021 375.53 384.021 375.383 384.167 375.383C388.559 371.43 384.753 350.348 367.038 337.025C344.784 320.188 291.493 309.647 291.493 309.647C291.493 309.647 270.849 306.28 194.28 322.238C149.48 331.608 115.367 345.224 96.3345 382.118C92.3815 389.731 88.4286 401.443 102.337 407.592Z" fill="white"/>
<path d="M193.84 320.628C165.73 326.337 135.717 332.486 112.585 351.08C104.826 357.375 99.7017 366.599 95.456 375.529C93.4063 379.922 91.3567 384.46 89.7462 389.292C88.8678 392.512 87.5501 396.173 88.2821 399.979C88.4285 401.004 89.307 402.322 90.039 403.054C93.4063 406.421 97.0665 408.471 100.727 411.106C122.248 426.039 146.991 436.58 172.612 442.144C229.71 454.588 291.493 444.926 341.71 414.912C358.4 404.811 373.772 392.513 386.949 378.018C388.413 376.262 388.413 373.333 388.413 371.43C388.266 367.038 387.095 362.792 385.631 358.839C382.117 349.762 377.579 340.685 369.819 334.39C364.256 330.583 358.253 327.362 352.104 324.727C332.779 316.528 312.429 310.818 291.493 308.476C289.736 308.329 289.443 310.818 291.2 311.111C311.257 315.211 331.168 321.36 349.762 329.705C356.497 333.072 363.67 336 369.087 341.271C374.212 346.834 377.872 353.715 380.8 360.743C382.703 364.988 384.021 371.723 383.435 375.09C374.212 386.071 363.378 395.733 351.665 404.078C287.54 448.878 190.18 451.807 121.955 414.473C115.806 411.106 109.804 407.299 104.094 403.346C101.312 401.443 98.3841 399.833 96.188 397.637C96.0416 397.49 96.188 397.637 96.188 397.783C96.188 397.929 96.3344 398.076 96.3344 398.076C96.188 396.319 96.7736 393.977 97.5057 391.634C100.141 383.143 104.387 374.212 108.925 366.452C116.099 354.886 128.251 347.566 140.549 341.71C149.04 337.757 157.971 334.682 167.048 331.754C176.125 328.826 185.349 326.337 194.572 324.141C196.915 323.556 196.183 320.188 193.84 320.628Z" fill="black"/>
<path d="M82.2803 428.381C85.062 406.713 97.3601 370.259 104.827 360.449C113.025 349.762 116.393 346.394 143.771 337.171C145.235 329.851 150.652 311.404 157.093 303.644C166.903 288.857 193.695 285.49 201.747 287.247C201.747 287.247 245.083 272.021 295.007 272.021C310.819 275.534 329.12 282.708 339.075 297.788C345.81 307.743 338.197 310.964 341.564 320.042C342.442 322.384 362.939 334.096 371.284 341.124C375.091 344.198 379.337 351.958 382.265 362.06C388.121 382.703 381.825 411.252 389.146 436.141C403.201 484.162 431.75 498.51 431.75 498.51H53.4385C53.7313 498.363 76.2777 474.06 82.2803 428.381Z" fill="#F26674"/>
<path d="M84.4759 428.675C87.404 409.496 93.2602 390.463 100.727 372.601C104.387 363.963 109.95 355.618 117.71 350.494C121.663 348.005 126.055 346.102 130.594 344.199C135.132 342.442 139.817 340.831 144.356 339.221C145.088 338.928 145.673 338.343 145.82 337.611C146.405 334.682 147.137 331.901 148.016 328.973C151.822 317.114 155.922 303.937 167.048 297.056C175.54 291.932 185.642 289.443 195.451 289.004C197.354 289.004 199.404 289.004 201.161 289.297H201.746C201.893 289.297 202.186 289.297 202.332 289.15C209.36 285.783 217.119 283.733 224.732 281.684C247.571 276.413 271.435 274.217 294.86 274.071C309.208 277.438 329.265 285.344 338.05 299.984C339.514 302.327 340.246 304.669 339.953 307.305C339.66 310.233 338.635 313.454 339.367 316.528C339.66 317.846 339.953 319.31 340.539 320.481C341.71 322.092 343.613 323.116 345.077 324.141C352.69 329.119 360.45 333.511 367.77 338.635C370.259 340.392 372.601 342.003 374.358 344.492C379.482 351.812 382.557 360.596 383.875 369.38C386.217 387.242 383.875 405.396 386.217 423.258C388.852 441.119 395.733 458.395 405.396 473.621C412.131 483.869 420.329 493.386 430.724 499.974L431.749 495.875H53.438L55.0484 499.535C59.4406 494.557 62.9543 489.14 66.1753 483.43C76.1308 466.74 81.987 447.854 84.4759 428.675ZM80.0837 428.089C78.4733 440.533 75.3987 452.831 70.7138 464.544C66.0288 476.11 60.1726 487.383 51.9739 496.899C50.8027 498.217 51.8275 500.706 53.5844 500.56H431.895C433.067 500.56 434.092 499.535 434.092 498.363C434.092 497.485 433.652 496.753 432.92 496.46C430.578 495.143 428.235 493.239 426.039 491.336C406.86 474.06 394.855 448.439 390.902 422.965C387.535 399.101 393.83 373.333 383.143 350.641C380.654 345.37 377.579 339.807 372.601 336.439C363.524 329.705 353.569 324.727 344.638 318.139C344.492 318.139 344.492 317.992 344.492 317.992C344.638 318.139 344.784 318.431 344.784 318.578C343.906 316.528 343.613 314.771 343.906 312.429C344.345 309.501 345.077 305.548 344.052 302.473C343.613 300.716 342.735 299.106 341.856 297.788C331.315 281.977 312.722 274.949 295.007 270.996C290.029 271.143 284.905 270.264 279.927 270.264C273.046 270.264 266.018 271.289 259.137 272.167C239.373 275.242 220.34 280.513 200.868 284.758L202.186 284.612C197.647 283.733 193.401 284.173 189.009 284.758C160.899 289.004 151.383 301.302 143.77 327.509C142.892 330.437 142.16 333.365 141.428 336.439L142.892 334.682C128.837 339.66 113.025 344.199 104.094 357.229C100.873 361.182 98.5308 365.867 96.4811 370.552C89.0144 389.292 83.1582 408.178 80.0837 428.089Z" fill="black"/>
<path d="M313.014 332.048C302.18 355.18 285.344 374.798 265.286 390.317C264.554 390.902 265.286 392.074 266.164 391.634C284.026 383.143 299.106 368.649 308.036 351.08C310.964 345.224 313.453 338.929 314.332 332.34C314.625 331.608 313.453 331.316 313.014 332.048Z" fill="black"/>
<path d="M141.574 336.879C141.134 361.328 151.09 386.364 170.123 402.175C170.562 402.615 171.147 402.468 171.587 402.029C172.026 401.59 171.879 401.004 171.44 400.565C167.194 396.466 162.949 392.22 159.728 387.242C152.993 377.579 148.894 366.16 146.991 354.594C146.112 348.884 145.526 342.735 145.966 337.025C146.112 334.243 141.72 333.951 141.574 336.879Z" fill="black"/>
<path d="M227.807 395.001C231.174 406.86 233.956 419.744 232.345 432.042C231.906 434.824 236.152 435.556 236.737 432.628C237.469 425.893 236.591 419.305 235.42 412.863C234.102 406.421 232.492 400.272 230.295 394.123C229.71 392.659 227.221 393.391 227.807 395.001Z" fill="black"/>
<path d="M181.25 392.805C176.418 403.2 173.051 414.034 170.416 425.014C170.123 426.186 170.855 427.357 172.026 427.65C173.197 427.943 174.369 427.211 174.662 426.039C176.126 417.841 178.029 409.642 180.664 401.59C181.543 398.954 182.421 396.319 183.446 393.684C184.031 392.366 181.982 391.341 181.25 392.805Z" fill="black"/>
<path d="M338.489 319.456C333.072 349.03 312.282 374.065 287.247 390.024C278.756 395.441 269.679 400.126 260.309 403.932C259.723 404.225 259.43 404.811 259.723 405.396C259.869 405.982 260.601 406.275 261.041 405.982C270.703 402.468 280.073 398.076 288.858 392.805C306.719 382.264 322.384 367.624 332.926 349.762C338.343 340.539 342.588 330.876 344.638 320.335C344.931 318.578 343.76 316.967 342.003 316.675C340.392 316.235 338.635 317.553 338.489 319.456Z" fill="black"/>
<path d="M236.591 435.263C240.691 434.824 243.619 431.017 242.741 426.918L241.13 419.158C240.544 416.084 237.616 413.888 234.542 414.327C231.467 414.62 228.978 417.255 228.978 420.476V428.382C228.832 432.481 232.346 435.702 236.591 435.263Z" fill="black"/>
<path d="M169.098 429.846C173.051 431.31 177.297 428.967 178.322 424.868L180.225 417.109C180.957 414.034 179.346 410.96 176.272 409.788C173.344 408.764 169.977 410.081 168.659 412.863L165.145 420.037C163.388 423.99 165.145 428.528 169.098 429.846Z" fill="black"/>
<path d="M101.459 425.454C101.459 425.454 93.2601 471.425 96.4811 498.364" stroke="black" stroke-width="5.1257" stroke-miterlimit="10" stroke-linecap="round" stroke-linejoin="round"/>
<path d="M292.665 314.186C294.714 308.33 295.593 302.327 295.153 296.178C295.153 295.592 294.714 295.3 294.129 295.3C293.689 295.3 293.25 295.739 293.25 296.178C292.811 301.741 291.2 307.451 288.565 312.283C287.248 315.211 291.64 317.114 292.665 314.186Z" fill="black"/>
<path d="M193.695 321.945C197.794 312.722 207.896 308.037 216.827 304.816C222.39 303.059 228.539 301.741 234.395 300.863C248.597 298.667 268.654 295.3 282.856 293.836C283.002 293.836 283.002 293.543 282.856 293.543C278.756 293.104 274.657 293.104 270.557 293.104C258.259 293.396 245.961 294.714 233.81 296.617C221.658 298.521 208.628 302.181 199.405 310.965C196.476 314.039 193.841 317.553 193.109 321.799C192.963 322.238 193.548 322.385 193.695 321.945Z" fill="black"/>
<path d="M180.079 359.571C183.154 374.651 203.065 383.728 236.592 370.112C271.436 356.058 286.516 322.531 290.323 312.575C269.679 273.924 284.027 247.132 284.027 247.132C236.445 243.033 194.866 298.667 194.866 298.667L188.424 326.191C187.839 328.533 186.668 330.583 184.911 332.047C181.836 337.464 178.176 349.909 180.079 359.571Z" fill="white"/>
<path d="M291.054 313.014C288.272 308.769 286.515 303.791 285.344 298.96C283.148 288.858 282.416 278.609 282.27 268.361V264.554C282.709 260.748 284.026 256.795 285.491 253.281C287.394 248.596 280.513 245.668 278.317 250.353C278.024 250.939 278.024 251.963 278.024 252.549C277.585 272.46 276.706 298.081 289.297 314.625C290.175 315.503 291.932 314.186 291.054 313.014Z" fill="black"/>
<path d="M193.256 298.374C191.06 299.692 190.328 301.449 190.035 303.205C189.156 306.719 189.449 310.526 188.571 314.186C187.839 317.7 185.643 321.067 185.057 324.727C184.325 328.534 182.129 336.586 181.25 340.539C180.958 341.417 181.543 342.442 182.568 342.588C183.154 342.735 183.593 342.588 184.032 342.296C185.935 340.685 186.814 339.075 187.985 337.025C189.888 333.511 191.206 330.29 192.377 326.337C193.402 322.824 192.963 319.017 193.841 315.357C194.573 311.843 196.623 308.476 197.355 304.816C197.794 303.059 197.941 301.156 196.623 298.96C195.745 298.081 194.281 297.788 193.256 298.374Z" fill="black"/>
<path d="M182.714 337.025C210.677 335.561 233.517 326.777 255.77 287.101C237.03 303.645 214.923 309.94 191.645 312.868L188.57 326.337C187.985 328.68 184.471 335.561 182.714 337.025Z" fill="black"/>
<path d="M183.885 331.608C178.907 340.978 175.979 352.69 179.053 363.085C181.396 370.405 188.13 375.822 195.451 377.872C212.434 382.411 232.052 375.237 247.132 367.184C265.725 356.79 279.487 339.367 288.272 320.335C288.857 318.871 286.808 317.699 285.929 319.163C282.855 325.312 279.341 331.315 275.388 336.732C271.435 342.295 266.897 347.42 261.772 351.958C246.839 365.428 226.635 373.773 206.431 373.773C185.642 373.187 177.736 362.207 182.567 342.003C183.299 338.782 184.47 335.414 186.081 332.633C186.959 331.462 184.763 330.144 183.885 331.608Z" fill="black"/>
<path d="M127.226 155.775C124.591 168.073 123.273 178.029 130.447 210.824C137.475 243.472 120.345 250.207 160.9 302.473C177.443 323.848 217.558 317.846 250.06 295.739C261.041 288.272 265.726 269.093 273.924 255.477C280.366 244.79 283.294 255.916 291.786 246.693C303.352 234.102 317.26 208.774 310.379 163.974C299.253 91.3569 241.715 82.8654 199.111 90.9177C156.215 99.1164 134.254 123.42 127.226 155.775Z" fill="white"/>
<path d="M284.466 259.723C287.833 254.013 292.225 249.035 296.324 243.765C300.277 238.348 303.498 232.345 306.134 226.196C323.556 183.446 316.821 123.273 274.071 98.0916C256.356 87.8432 234.981 85.3543 215.07 86.9648C172.466 90.0393 133.375 109.658 124.152 154.75C119.174 174.662 125.909 195.158 129.715 214.63C131.472 224.293 130.008 234.248 130.155 244.204C130.301 254.306 133.083 264.408 136.889 273.778C139.232 280.22 143.331 285.929 147.577 291.2C154.604 299.692 161.632 308.329 170.562 314.918C172.612 316.382 176.272 317.114 178.761 317.407C185.642 318.431 192.377 318.724 199.258 318.285C226.196 317.114 255.038 304.084 265.872 278.024C266.311 276.999 264.847 276.267 264.262 277.145C250.207 299.399 224.44 310.379 198.819 311.843C190.913 312.282 182.86 312.136 175.101 310.526C171.294 308.622 167.927 305.255 164.706 302.18C156.8 294.275 148.748 285.783 143.038 276.12C136.157 263.09 132.351 248.889 133.522 234.102C133.815 227.514 133.961 220.633 132.643 214.045C131.472 207.456 130.008 201.161 129.13 194.426C128.251 187.984 127.812 181.396 127.812 174.954C128.544 156.068 134.693 136.596 146.698 121.956C173.198 89.0145 235.859 80.3765 271.143 102.923C293.396 116.685 303.791 142.452 307.158 167.488C312.283 197.501 310.819 227.075 286.955 248.889L279.927 256.209C277.145 259.43 282.123 263.237 284.466 259.723Z" fill="black"/>
<path d="M267.19 213.166C267.19 213.166 271.729 191.205 293.104 193.84C311.551 196.183 317.993 240.397 276.121 252.695" fill="white"/>
<path d="M278.024 233.516C281.391 231.613 283.734 228.392 283.88 224.439C283.734 221.511 283.294 218.144 284.026 215.216C284.466 212.434 287.394 211.702 289.59 211.848C291.932 212.288 293.396 215.216 293.836 217.558C293.836 217.705 293.982 218.144 293.982 218.29C294.128 219.022 295.3 219.022 295.592 218.29C297.496 212.58 293.25 206.285 287.101 207.017C278.463 207.603 277.292 216.68 278.902 223.561C279.781 226.489 278.609 229.124 276.999 231.613L276.706 232.052C275.974 232.931 277.145 234.102 278.024 233.516Z" fill="black"/>
<path d="M160.9 197.647C158.704 208.042 154.605 217.705 149.48 226.782C144.942 237.908 156.654 248.45 167.049 248.01C168.22 248.01 168.367 246.4 167.342 246.107C160.754 244.058 154.751 239.665 153.726 232.931C153.287 230.881 153.872 229.124 154.897 227.367C159.729 218.29 162.657 207.895 161.925 197.647C161.925 196.915 160.9 196.915 160.9 197.647Z" fill="black"/>
<path d="M267.922 213.312C271.289 204.675 278.609 196.476 288.419 196.622C289.297 196.476 290.761 196.769 291.64 196.769C294.128 196.915 296.178 197.794 298.081 199.55C307.451 208.92 305.841 225.464 298.228 235.859C295.592 239.519 292.225 242.74 288.419 245.375C284.612 248.011 280.366 250.06 275.828 251.817C274.803 252.11 275.242 253.72 276.267 253.574C286.076 251.524 295.446 246.693 301.888 238.641C311.843 226.635 313.893 206.578 302.034 194.865C299.399 192.523 295.739 190.766 292.079 190.766C290.907 190.766 289.151 190.473 287.979 190.766C281.83 191.059 275.974 194.133 272.168 198.965C268.8 203.064 266.897 208.042 266.311 213.02C266.311 213.898 267.629 214.191 267.922 213.312Z" fill="black"/>
<path d="M172.026 262.651C181.396 271.582 199.111 264.408 203.796 253.574C204.382 252.256 202.918 251.085 201.746 251.671C199.257 252.988 197.061 254.306 194.719 255.331C187.984 258.405 180.957 260.894 173.49 260.162C172.026 259.869 171.001 261.626 172.026 262.651Z" fill="black"/>
<path d="M215.508 212.58C219.022 212.434 221.657 209.506 221.364 205.992L221.218 201.893C221.072 198.379 218.144 195.744 214.63 196.037C211.116 196.183 208.481 199.111 208.774 202.625L208.92 206.724C209.066 210.092 211.995 212.727 215.508 212.58Z" fill="black"/>
<path d="M153.872 214.777C157.093 214.63 159.582 211.849 159.436 208.628L159.289 204.821C159.143 201.6 156.361 199.111 153.14 199.258C149.919 199.404 147.43 202.186 147.577 205.407L147.723 209.213C147.869 212.434 150.651 214.923 153.872 214.777Z" fill="black"/>
<path d="M202.332 204.675C207.163 201.454 212.434 199.258 218.29 200.429C220.193 200.722 222.097 201.307 223.268 202.625C223.707 203.211 224.732 203.064 224.732 202.186C224.585 199.258 222.097 197.354 219.754 196.183C215.215 193.841 208.92 194.28 204.821 197.354C203.357 198.233 198.379 203.65 201.014 204.821C201.6 205.114 201.893 204.967 202.332 204.675Z" fill="black"/>
<path d="M160.46 205.407C160.46 199.258 152.847 197.062 148.162 199.258C145.526 200.429 143.623 202.771 142.891 205.553C142.598 206.431 143.916 207.163 144.502 206.431C146.991 203.503 151.236 202.039 154.604 203.796C155.628 204.382 155.775 204.821 156.068 205.407C156.068 208.335 160.313 208.188 160.46 205.407Z" fill="black"/>
<path d="M195.304 180.518C192.23 181.543 189.155 178.761 189.741 175.394C190.034 173.637 190.766 171.88 192.23 170.562C196.622 166.609 214.776 163.095 225.757 168.22C235.419 172.905 209.359 175.833 195.304 180.518Z" fill="black"/>
<path d="M151.529 182.86C154.017 183.739 156.653 181.103 156.214 178.029C156.067 176.418 155.482 174.808 154.31 173.637C150.797 170.123 138.791 167.341 131.178 172.758C124.59 177.297 140.109 178.614 151.529 182.86Z" fill="black"/>
<path d="M115.367 133.375C105.412 124.737 90.7713 111.707 105.851 93.5528C120.931 75.3986 148.748 82.426 148.748 82.426C148.748 82.426 142.892 65.7358 159.143 59.7332C178.761 52.5594 234.395 74.2273 234.395 74.2273C238.494 74.0809 242.447 73.9345 246.107 73.9345C294.128 72.9097 308.037 103.216 308.622 130.447C308.622 130.447 324.873 135.864 328.973 161.778C330.29 170.123 331.608 180.81 328.387 193.694C319.749 228.831 296.471 253.281 281.684 265.725C276.12 261.626 285.93 255.916 285.197 249.182C316.967 233.663 310.086 196.036 293.103 193.84C280.073 192.23 273.192 199.843 269.971 205.992C268.654 207.749 286.222 109.804 184.91 141.867C164.852 148.162 144.209 153.725 130.154 143.623C128.544 146.698 127.519 150.358 127.226 155.775C127.226 155.775 102.777 146.259 106.437 136.303C107.608 132.936 115.367 133.375 115.367 133.375Z" fill="black"/>
<path d="M192.23 230.588C192.23 230.588 205.992 239.226 221.511 239.08C237.03 238.933 238.933 226.782 239.079 220.193C239.079 220.193 237.03 229.71 227.66 233.223C218.436 236.737 192.23 230.588 192.23 230.588Z" fill="black"/>
<path d="M148.017 228.978C148.017 228.978 144.649 233.077 140.111 236.005C137.036 238.055 132.937 235.859 132.937 232.199C132.937 232.199 141.428 232.638 148.017 228.978Z" fill="black"/>
<path d="M187.107 191.498C195.012 190.766 214.924 189.156 222.537 188.424L228.393 187.984C233.224 187.692 237.031 191.791 237.909 196.476C238.202 197.94 238.202 200.429 238.202 201.893V207.895C238.202 211.556 238.348 215.362 237.031 218.876C234.688 227.075 227.222 233.663 218.437 232.638C217.559 232.492 212.142 231.906 211.117 231.76L199.258 230.442C195.452 230.149 191.938 229.124 188.571 227.075C183.886 224.293 179.347 220.047 179.64 214.044L179.347 208.188C179.054 200.868 177.005 192.23 187.107 191.498ZM186.667 186.667C179.786 187.252 175.101 194.426 175.541 201.014C175.541 201.893 175.833 207.456 175.98 208.481C175.98 209.652 176.273 214.923 176.419 215.948C177.151 225.903 188.278 232.931 197.355 234.248C202.04 234.834 211.849 236.152 216.534 236.737C217.705 236.884 219.316 237.03 220.487 237.176C221.073 237.176 222.39 237.03 222.976 237.03C235.42 235.42 243.326 222.682 243.033 210.824C243.033 208.92 243.033 203.943 243.033 201.893C243.033 200.868 243.033 198.233 242.887 197.208C242.448 192.084 239.666 187.106 234.981 184.324C232.931 183.153 230.443 182.567 227.954 182.714L221.951 183.299C214.631 184.178 194.427 186.081 186.667 186.667Z" fill="black"/>
<path d="M152.701 189.009C149.48 188.57 133.668 186.813 130.74 186.52C130.008 186.52 128.105 186.227 127.519 186.227C121.224 185.349 118.296 192.23 117.71 197.354C117.417 201.893 117.71 206.285 117.564 210.677C117.564 213.752 117.857 216.826 118.589 219.754C120.492 227.66 126.055 236.005 135.279 233.37C137.475 232.931 141.867 232.345 143.917 231.906L146.113 231.467C150.359 230.735 153.872 227.807 156.215 224.586C160.607 219.461 159.728 212.58 160.168 206.431C160.753 200.282 160.607 190.766 152.701 189.009ZM152.115 193.255C156.654 195.305 155.483 202.186 155.483 206.285L155.19 215.069C155.043 220.633 150.651 226.196 145.381 227.66C144.063 227.953 140.403 228.685 138.939 228.978L134.693 229.856C124.152 233.224 120.053 218.583 120.199 210.531C120.638 203.796 118.589 195.744 123.42 190.327C124.591 189.156 125.762 188.863 127.08 189.156C127.812 189.302 129.715 189.595 130.301 189.741C133.229 190.327 149.041 192.816 152.115 193.255Z" fill="black"/>
<path d="M240.691 202.625C241.862 205.26 242.887 204.967 244.936 204.967L249.182 204.821C254.599 204.528 260.602 204.089 266.019 203.357C268.947 202.918 272.021 202.478 274.949 201.746C276.121 201.454 276.853 200.282 276.56 199.111C276.267 198.086 275.389 197.354 274.364 197.501L265.872 197.94L257.381 198.233C254.599 198.379 247.425 198.525 244.643 198.672C243.179 198.672 241.862 198.818 240.398 198.379C239.812 198.233 239.226 198.525 239.08 199.111C238.934 199.404 239.08 199.55 239.08 199.843L240.691 202.625Z" fill="black"/>
<path d="M178.322 199.55C173.051 196.622 159.143 192.523 156.508 200.429C155.336 202.478 158.411 204.382 159.728 202.332C159.728 202.625 160.46 202.332 160.753 202.332C166.317 201.893 172.026 202.771 177.59 203.211C179.932 203.503 180.372 200.429 178.322 199.55Z" fill="black"/>
<path d="M26.0601 123.42C-62.8079 294.567 93.4065 487.676 279.634 440.533C363.231 419.744 430.431 347.273 444.34 262.212C460.152 177.59 421.94 86.6719 350.494 38.7974C252.549 -28.549 116.831 -6.14904 46.7032 90.1856C46.264 90.6248 46.4104 91.3569 46.9961 91.7961C47.4353 92.2353 48.1673 92.0889 48.6065 91.5033C58.2693 79.0588 69.2497 67.7856 81.2549 57.6837C101.02 40.8471 124.152 27.6706 148.601 18.7399C273.046 -26.3529 409.642 48.6065 436.873 178.761C467.618 324.58 343.613 458.834 195.744 438.776C81.6941 424.429 -3.07455 319.163 6.29539 204.675C8.34506 177.004 15.6653 149.626 27.817 124.444C28.1098 124.005 27.817 123.42 27.3778 123.127C26.9386 122.834 26.3529 122.98 26.0601 123.42Z" fill="black"/>
</g>
</svg>
